<svg aria-hidden="true" style="position: absolute; width: 0; height: 0; overflow: hidden;" version="1.1" xmlns="http://www.w3.org/2000/svg" xmlns:xlink="http://www.w3.org/1999/xlink">
<defs>
<symbol id="icon-arrow-right" viewBox="0 0 32 32">
<path d="M18.719 3.721c6.719 3.905 12.8 10.038 12.962 10.315 0.319 0.283 0.319 0.561 0.319 0.98 0 0.278-0.163 0.697-0.319 0.975-0.162 0.278-6.4 6.41-12.962 10.315-0.481 0.278-1.119 0.278-1.756 0.142-0.481-0.278-0.963-0.697-0.963-1.258v-5.158c0 0-13.919-0.697-14.563-1.116-0.8-0.833-1.438-2.505-1.438-4.041s0.637-3.066 1.438-3.627c0.644-0.278 14.563-1.253 14.563-1.253v-5.158c0-0.561 0.319-0.975 0.963-1.258 0.475-0.278 1.119-0.136 1.756 0.142z"></path>
</symbol>
<symbol id="icon-cart" viewBox="0 0 32 32">
<path d="M4 6c-0.551 0-1 0.449-1 1s0.449 1 1 1h2.219l2.625 10.5c0.223 0.891 1.020 1.5 1.937 1.5h11.469c0.902 0 1.668-0.598 1.906-1.469l2.594-9.531h-16.75l0.5 2h13.656l-1.906 7h-11.469l-2.625-10.5c-0.223-0.891-1.020-1.5-1.938-1.5h-2.219zM21 20c-1.645 0-3 1.355-3 3s1.355 3 3 3c1.645 0 3-1.355 3-3s-1.355-3-3-3zM12 20c-1.645 0-3 1.355-3 3s1.355 3 3 3c1.645 0 3-1.355 3-3s-1.355-3-3-3zM12 22c0.563 0 1 0.438 1 1s-0.438 1-1 1c-0.563 0-1-0.438-1-1s0.438-1 1-1zM21 22c0.563 0 1 0.438 1 1s-0.438 1-1 1c-0.563 0-1-0.438-1-1s0.438-1 1-1z"></path>
</symbol>
<symbol id="icon-fb" viewBox="0 0 32 32">
<path d="M18.223 23.714v-5.604h1.9l0.284-2.131h-2.184v-1.38c0-0.629 0.171-1.055 1.084-1.055h1.194v-1.963c-0.202-0.025-0.907-0.081-1.71-0.081-1.678 0-2.812 1.020-2.812 2.871v1.608h-1.906v2.131h1.905l-0.004 5.604h-6.402c-0.703 0-1.286-0.583-1.286-1.286v-12.857c0-0.703 0.583-1.286 1.286-1.286h12.857c0.703 0 1.286 0.583 1.286 1.286v12.857c0 0.703-0.583 1.286-1.286 1.286h-4.206z"></path>
</symbol>
<symbol id="icon-insta" viewBox="0 0 32 32">
<path d="M8.286 12.738c0-2.459 1.993-4.452 4.452-4.452h6.524c2.459 0 4.452 1.993 4.452 4.452v6.524c0 2.459-1.993 4.452-4.452 4.452h-6.524c-2.459 0-4.452-1.993-4.452-4.452v-6.524zM9.682 12.871v6.258c0 1.764 1.428 3.188 3.188 3.188h6.258c1.764 0 3.188-1.428 3.188-3.188v-6.258c0-1.764-1.428-3.188-3.188-3.188h-6.258c-1.764 0-3.188 1.428-3.188 3.188zM16 19.924c-2.167 0-3.924-1.757-3.924-3.924s1.757-3.924 3.924-3.924c2.167 0 3.924 1.757 3.924 3.924s-1.757 3.924-3.924 3.924zM16 18.527c1.396 0 2.527-1.131 2.527-2.527s-1.131-2.527-2.527-2.527c-1.396 0-2.527 1.131-2.527 2.527s1.131 2.527 2.527 2.527zM20.057 12.808c-0.514 0-0.931-0.417-0.931-0.931s0.417-0.931 0.931-0.931c0.514 0 0.931 0.417 0.931 0.931s-0.417 0.931-0.931 0.931z"></path>
</symbol>
<symbol id="icon-pint" viewBox="0 0 32 32">
<path d="M16 8.286c-4.261 0-7.714 3.453-7.714 7.714 0 3.27 2.034 6.059 4.904 7.184-0.068-0.61-0.131-1.547 0.025-2.215 0.141-0.6 0.904-3.834 0.904-3.834s-0.228-0.462-0.228-1.145c0-1.072 0.62-1.873 1.394-1.873 0.658 0 0.977 0.495 0.977 1.087 0 0.663-0.422 1.652-0.64 2.569-0.181 0.768 0.387 1.394 1.143 1.394 1.371 0 2.426-1.447 2.426-3.533 0-1.846-1.326-3.136-3.222-3.136-2.195 0-3.483 1.645-3.483 3.347 0 0.663 0.256 1.374 0.575 1.76 0.063 0.075 0.070 0.143 0.053 0.221-0.060 0.244-0.188 0.768-0.213 0.874-0.035 0.143-0.113 0.173-0.259 0.103-0.964-0.447-1.567-1.856-1.567-2.988 0-2.433 1.768-4.668 5.098-4.668 2.677 0 4.756 1.906 4.756 4.457 0 2.657-1.677 4.796-4.003 4.796-0.781 0-1.517-0.404-1.768-0.884 0 0-0.387 1.472-0.482 1.833-0.173 0.67-0.643 1.509-0.959 2.021 0.723 0.223 1.489 0.344 2.285 0.344 4.261 0 7.714-3.453 7.714-7.714s-3.453-7.714-7.714-7.714z"></path>
</symbol>
<symbol id="icon-play" viewBox="0 0 32 32">
<path d="M0 0h32v32h-32v-32z"></path>
<path d="M20.231 15.523l-6.355-3.939c-0.174-0.106-0.403-0.114-0.581-0.011-0.182 0.103-0.294 0.297-0.294 0.506v7.842c0 0.209 0.113 0.403 0.291 0.506 0.087 0.048 0.182 0.073 0.28 0.073 0.105 0 0.207-0.029 0.298-0.084l6.355-3.906c0.171-0.103 0.276-0.293 0.276-0.491 0.007-0.202-0.098-0.392-0.269-0.495z"></path>
</symbol>
<symbol id="icon-tvit" viewBox="0 0 32 32">
<path d="M23.714 11.058c-0.568 0.251-1.178 0.422-1.818 0.497 0.653-0.392 1.155-1.012 1.391-1.751-0.61 0.362-1.288 0.626-2.009 0.769-0.578-0.615-1.401-1.002-2.31-1.002-1.748 0-3.167 1.419-3.167 3.167 0 0.249 0.028 0.49 0.083 0.721-2.631-0.13-4.964-1.391-6.524-3.307-0.274 0.467-0.429 1.012-0.429 1.592 0 1.097 0.557 2.067 1.409 2.634-0.519-0.018-1.007-0.158-1.434-0.397 0 0.015 0 0.028 0 0.040 0 1.534 1.090 2.815 2.539 3.104-0.266 0.073-0.545 0.113-0.834 0.113-0.203 0-0.404-0.020-0.595-0.058 0.402 1.258 1.572 2.172 2.956 2.2-1.083 0.849-2.449 1.353-3.93 1.353-0.257 0-0.507-0.015-0.756-0.045 1.401 0.899 3.064 1.424 4.852 1.424 5.823 0 9.008-4.824 9.008-9.008 0-0.136-0.005-0.274-0.010-0.409 0.618-0.447 1.155-1.004 1.58-1.637z"></path>
</symbol>
<symbol id="icon-ut" viewBox="0 0 32 32">
<path d="M16 9.571c2.421 0 4.56 0.251 5.866 0.442 1.080 0.158 1.951 0.971 2.15 2.049 0.17 0.919 0.341 2.263 0.341 3.937s-0.174 3.018-0.341 3.938c-0.199 1.078-1.070 1.893-2.15 2.049-1.311 0.191-3.458 0.442-5.866 0.442s-4.555-0.251-5.866-0.442c-1.080-0.156-1.951-0.971-2.15-2.049-0.168-0.917-0.341-2.258-0.341-3.938s0.174-3.021 0.341-3.938c0.199-1.077 1.070-1.891 2.15-2.049 1.306-0.191 3.445-0.442 5.866-0.442zM14.071 12.324v7.353l0.964-0.543 4.5-2.571 0.964-0.563-0.964-0.563-4.5-2.571-0.964-0.543z"></path>
</symbol>
</defs>
</svg>
